<svg xmlns="http://www.w3.org/2000/svg" width="7" height="13" viewBox="0 0 7 13">
  <g id="Vector_Smart_Object" data-name="Vector Smart Object" transform="translate(-2028 -823)">
    <g id="Vector_Smart_Object-2" data-name="Vector Smart Object" transform="translate(1569.138 671.725)">
      <path id="Path_115" data-name="Path 115" d="M465.535,158.678l-4.71,5.223a1.071,1.071,0,0,1-1.626,0,1.374,1.374,0,0,1,0-1.8l3.941-4.372-3.888-4.312a1.352,1.352,0,0,1,0-1.773,1.055,1.055,0,0,1,1.6,0l4.628,5.134a1.255,1.255,0,0,1,.251.427A1.363,1.363,0,0,1,465.535,158.678Z" fill-rule="evenodd"/>
    </g>
    <path id="Color_Overlay" data-name="Color Overlay" d="M2028.337,835.627a1.374,1.374,0,0,1,0-1.8l3.941-4.373-3.888-4.311a1.353,1.353,0,0,1,0-1.773,1.054,1.054,0,0,1,1.6,0l4.629,5.135a1.273,1.273,0,0,1,.251.427,1.362,1.362,0,0,1-.2,1.474l-4.71,5.224a1.071,1.071,0,0,1-1.625,0Z" fill="#fff"/>
  </g>
</svg>
