<svg xmlns="http://www.w3.org/2000/svg" width="14" height="8" viewBox="0 0 14 8">
  <g id="Vector_Smart_Object_copy_2" data-name="Vector Smart Object copy 2" transform="translate(-715 -1566)">
    <g id="Vector_Smart_Object_copy_2-2" data-name="Vector Smart Object copy 2" transform="translate(443.522 1421.34)">
      <path id="Path_105" data-name="Path 105" d="M271.791,144.969a1.072,1.072,0,0,1,1.506,0l5.182,5.139,5.181-5.139a1.072,1.072,0,0,1,1.506,0,1.051,1.051,0,0,1,0,1.5l-5.934,5.886a1.072,1.072,0,0,1-1.507,0l-5.934-5.886A1.051,1.051,0,0,1,271.791,144.969Z"/>
    </g>
    <path id="Color_Overlay" data-name="Color Overlay" d="M721.247,1573.691l-5.935-5.886a1.052,1.052,0,0,1,0-1.495,1.071,1.071,0,0,1,1.507,0l5.182,5.138,5.18-5.138a1.071,1.071,0,0,1,1.507,0,1.052,1.052,0,0,1,0,1.495l-5.934,5.886a1.074,1.074,0,0,1-1.508,0Z" fill="#da251c"/>
  </g>
</svg>
