<svg xmlns="http://www.w3.org/2000/svg" width="21" height="21.001" viewBox="0 0 21 21.001">
  <g id="Vector_Smart_Object" data-name="Vector Smart Object" transform="translate(-350 -1307)">
    <g id="Vector_Smart_Object-2" data-name="Vector Smart Object" transform="translate(157.392 1166.411)">
      <g id="Group_35" data-name="Group 35">
        <g id="Group_32" data-name="Group 32">
          <g id="Group_31" data-name="Group 31">
            <path id="Path_53" data-name="Path 53" d="M203.134,154.907a.951.951,0,0,1-.673-.277l-3.838-3.812a.955.955,0,0,1,1.346-1.356l3.163,3.141,8.846-8.871a.954.954,0,0,1,1.352,1.348l-9.519,9.546A.949.949,0,0,1,203.134,154.907Z"/>
          </g>
        </g>
        <g id="Group_34" data-name="Group 34">
          <g id="Group_33" data-name="Group 33">
            <path id="Path_54" data-name="Path 54" d="M203.107,161.589a10.5,10.5,0,1,1,5.249-19.6.955.955,0,1,1-.957,1.653,8.593,8.593,0,1,0,4.256,6.585.954.954,0,1,1,1.9-.192,10.5,10.5,0,0,1-10.448,11.551Z"/>
          </g>
        </g>
      </g>
    </g>
    <path id="Color_Overlay" data-name="Color Overlay" d="M350,1317.5a10.5,10.5,0,0,1,15.749-9.1.955.955,0,1,1-.958,1.651,8.592,8.592,0,1,0,4.3,7.445,8.454,8.454,0,0,0-.043-.859.954.954,0,0,1,1.9-.193A10.4,10.4,0,0,1,371,1317.5a10.5,10.5,0,1,1-21,0Zm9.852,3.54-3.838-3.812a.955.955,0,0,1,1.346-1.355l3.163,3.142,8.846-8.871a.955.955,0,1,1,1.352,1.349l-9.519,9.545a.956.956,0,0,1-1.349,0Z" fill="#da251c"/>
  </g>
</svg>
