<svg xmlns="http://www.w3.org/2000/svg" width="36" height="36.001" viewBox="0 0 36 36.001">
  <g id="Vector_Smart_Object_copy_16" data-name="Vector Smart Object copy 16" transform="translate(-343 -3756.999)">
    <g id="Vector_Smart_Object_copy_16-2" data-name="Vector Smart Object copy 16" transform="translate(12.815 3515.991)">
      <g id="Group_15" data-name="Group 15">
        <g id="Group_12" data-name="Group 12">
          <g id="Group_11" data-name="Group 11">
            <path id="Path_33" data-name="Path 33" d="M348.23,265.555a1.631,1.631,0,0,1-1.154-.475l-6.58-6.534a1.637,1.637,0,0,1,2.307-2.324l5.422,5.385L363.389,246.4a1.636,1.636,0,1,1,2.317,2.31l-16.319,16.365A1.627,1.627,0,0,1,348.23,265.555Z"/>
          </g>
        </g>
        <g id="Group_14" data-name="Group 14">
          <g id="Group_13" data-name="Group 13">
            <path id="Path_34" data-name="Path 34" d="M348.184,277.009a18,18,0,1,1,9-33.592,1.637,1.637,0,1,1-1.64,2.833,14.728,14.728,0,1,0,7.369,12.76,14.552,14.552,0,0,0-.074-1.472,1.636,1.636,0,1,1,3.256-.33,18.008,18.008,0,0,1-17.91,19.8Z"/>
          </g>
        </g>
      </g>
    </g>
    <path id="Color_Overlay" data-name="Color Overlay" d="M343,3775a18,18,0,0,1,27-15.594,1.637,1.637,0,0,1-1.639,2.834,14.728,14.728,0,1,0,7.369,12.76q0-.747-.073-1.473a1.636,1.636,0,1,1,3.255-.328,17.572,17.572,0,0,1,.09,1.8,18,18,0,1,1-36,0Zm16.891,6.069-6.58-6.534a1.637,1.637,0,1,1,2.306-2.324l5.421,5.385L376.2,3762.39a1.636,1.636,0,0,1,2.318,2.31l-16.32,16.365a1.635,1.635,0,0,1-2.311,0Z" fill="#da251c"/>
  </g>
</svg>
