<svg xmlns="http://www.w3.org/2000/svg" width="38" height="32" viewBox="0 0 38 32">
  <g id="Vector_Smart_Object" data-name="Vector Smart Object" transform="translate(-1103 -1076)">
    <g id="Vector_Smart_Object-2" data-name="Vector Smart Object" transform="translate(920.068 1022.105)">
      <path id="Path_111" data-name="Path 111" d="M213.425,71.9l0,0c-.064-.067-.15-.156-.25-.259l-.553-.564q-1.35-1.367-4.546-4.558a.982.982,0,0,0,.95-.96,1,1,0,0,0-.96-1.033c-.744-.029-1.4-.06-1.986-.089-3.051-.15-4.2-.206-5.335,1.035L196.6,69.6l-.007.007a.567.567,0,0,1-.976-.287.55.55,0,0,1,.127-.465l6.526-6.67,4-4.006a7.46,7.46,0,0,1,10.169-.535,7.3,7.3,0,0,1,.34,10.684l-.873.93a1,1,0,0,0,.016,1.383h0a1,1,0,0,0,1.439-.017l.847-.9a9.362,9.362,0,0,0,2.715-6.9,9.208,9.208,0,0,0-3.168-6.679h0a9.459,9.459,0,0,0-12.9.623l-3.273,3.275-3-3a8.6,8.6,0,0,0-6.08-2.52h0a9.67,9.67,0,0,0-6.218,2.141,9.275,9.275,0,0,0-3.326,8.044,9.677,9.677,0,0,0,2.879,5.893l14.417,14.427a2.959,2.959,0,0,0,2.1.867h0a3.217,3.217,0,0,0,3.106-2.944,3.052,3.052,0,0,0,2.064-1,2.956,2.956,0,0,0,.868-1.941,3.219,3.219,0,0,0,2.935-2.932,3.011,3.011,0,0,0,2.065-1,2.782,2.782,0,0,0,.99-2.1A3.291,3.291,0,0,0,213.425,71.9ZM212,74.671a1.068,1.068,0,0,1-1.578.181l-5.071-4.972a1,1,0,0,0-1.411,1.411l5.126,5.13a.98.98,0,0,0,.237.175,1.031,1.031,0,0,1-.368,1.14.985.985,0,0,1-.7.277h0a.988.988,0,0,1-.7-.277l-5.125-5.129A1,1,0,0,0,201,74.019l5.125,5.129a.987.987,0,0,1,0,1.395,1,1,0,0,1-1.524.129l-5.125-5.129a1,1,0,0,0-1.41,1.412l4.974,4.978h0l.152.153a.924.924,0,0,1,.294.663,1.246,1.246,0,0,1-.424.86,1.01,1.01,0,0,1-1.393,0l-14.6-14.617A7.3,7.3,0,1,1,197.391,58.66l2.8,2.8L194.3,67.471l0,0a2.56,2.56,0,0,0,1.159,4.2,2.507,2.507,0,0,0,2.576-.693l4.142-4.116.006-.007c.529-.574,1.1-.542,2.251-.475.214.013.454.026.713.038L212,73.277a.987.987,0,0,1,0,1.394Z"/>
    </g>
    <path id="Color_Overlay" data-name="Color Overlay" d="M1120.336,1107.132l-14.416-14.427a9.673,9.673,0,0,1-2.879-5.893,9.274,9.274,0,0,1,3.326-8.044,9.672,9.672,0,0,1,6.218-2.141,8.6,8.6,0,0,1,6.08,2.52l3,3,3.272-3.275a9.459,9.459,0,0,1,12.9-.623,9.21,9.21,0,0,1,3.168,6.679,9.365,9.365,0,0,1-2.715,6.9l-.848.9a1,1,0,1,1-1.454-1.365l.873-.929a7.3,7.3,0,0,0-.34-10.685,7.459,7.459,0,0,0-10.169.535l-4,4.007-6.526,6.669a.567.567,0,0,0,.848.752l.007-.006,4.141-4.117c1.139-1.241,2.284-1.185,5.335-1.036.582.029,1.242.06,1.985.089a1,1,0,0,1,.96,1.033.982.982,0,0,1-.95.96q3.2,3.2,4.547,4.558l.554.564c.1.1.186.192.25.258l0,0a3.291,3.291,0,0,1,.973,2.075,2.783,2.783,0,0,1-.99,2.1,3.49,3.49,0,0,0-3.065,3.066,3,3,0,0,1-1.935.865,2.958,2.958,0,0,1-.868,1.94,3.051,3.051,0,0,1-2.064,1,3.016,3.016,0,0,1-1,2.073,2.976,2.976,0,0,1-4.2,0Zm-13.2-26.366a7.3,7.3,0,0,0,0,10.332l14.6,14.617a1.011,1.011,0,0,0,1.393,0,1.249,1.249,0,0,0,.424-.86.922.922,0,0,0-.294-.662l-.151-.153-4.974-4.978a1,1,0,1,1,1.41-1.412l5.125,5.129a1,1,0,0,0,1.524-.129.986.986,0,0,0,0-1.4l-5.125-5.129a1,1,0,0,1,1.409-1.411l5.125,5.129a1.014,1.014,0,0,0,1.393,0,1.03,1.03,0,0,0,.368-1.14.992.992,0,0,1-.238-.176L1124,1093.4a1,1,0,0,1,1.411-1.411l5.072,4.972a1.068,1.068,0,0,0,1.578-.181.988.988,0,0,0,0-1.394l-6.851-6.855c-.259-.011-.5-.024-.713-.038-1.147-.066-1.723-.1-2.251.476l-.006.007-4.142,4.116a2.508,2.508,0,0,1-2.576.694,2.56,2.56,0,0,1-1.159-4.2l0,0,5.883-6.014-2.8-2.8a7.291,7.291,0,0,0-10.324,0Z" fill="#dfdfdf"/>
  </g>
</svg>
