<svg xmlns="http://www.w3.org/2000/svg" width="28.001" height="29" viewBox="0 0 28.001 29">
  <g id="Vector_Smart_Object" data-name="Vector Smart Object" transform="translate(-532.652 -54.789)">
    <g id="Group_152" data-name="Group 152">
      <path id="Path_118" data-name="Path 118" d="M555.269,55.3V69.046l-7.21,4.432a.7.7,0,0,0-.095.059l-1.312.806-1.313-.807a.705.705,0,0,0-.091-.057l-7.213-4.433V55.3Z" fill="#bf2119"/>
      <path id="Path_119" data-name="Path 119" d="M560.652,66.86v-.018l0-.023,0-.018,0-.015,0-.024,0-.019,0-.012-.007-.024-.005-.02-.005-.011-.008-.022-.007-.019-.007-.014-.009-.019-.009-.017-.011-.018-.005-.009-.005-.007-.008-.013-.014-.019-.013-.016-.007-.01-.016-.018-.016-.016-.007-.008-.016-.015-.02-.016-.009-.008-.016-.012-.02-.014-.013-.009-.007,0L556.2,63.8V55.379a.6.6,0,0,0-.6-.59H537.71a.6.6,0,0,0-.6.59V63.8l-4.172,2.565-.007,0-.013.009-.019.014-.016.012-.01.008-.018.016-.016.015-.008.008-.015.016-.016.018-.008.01-.012.015-.014.02-.009.013,0,.007-.005.009-.011.018-.009.017-.009.018-.007.015-.007.019-.008.021-.005.013-.006.02-.006.023,0,.012,0,.019,0,.024,0,.015,0,.018,0,.022V80.892a2.936,2.936,0,0,0,2.967,2.9h22.067a2.937,2.937,0,0,0,2.967-2.9V66.86Zm-1.2,14.032a1.678,1.678,0,0,1-.283.93l-9.836-7.666,10.119-6.219Zm-.532-14.023-2.718,1.67V65.2Zm-3.922-10.9V69.28l-6.98,4.291a.508.508,0,0,0-.091.057l-1.27.78-1.271-.782a.605.605,0,0,0-.088-.053l-6.981-4.292V55.971ZM534.14,81.822a1.677,1.677,0,0,1-.283-.93V67.937l10.118,6.219Zm2.967-13.282-2.718-1.67,2.718-1.67Zm-1.488,14.068a1.786,1.786,0,0,1-.468-.064l9.907-7.721,1.275.783.013.007.045.023.029.014.043.015.034.01c.014,0,.029.006.043.009s.023.005.034.006.043,0,.066.005h.024c.023,0,.044,0,.066-.005a.32.32,0,0,0,.033-.006c.015,0,.03-.005.044-.009l.033-.01.044-.015.029-.014.045-.023.013-.007,1.275-.783,9.907,7.721a1.786,1.786,0,0,1-.468.064Zm5.058-23.425a.6.6,0,0,1,.6-.591h10.746a.591.591,0,1,1,0,1.182H541.279A.6.6,0,0,1,540.677,59.182Zm0,3.315a.6.6,0,0,1,.6-.59h10.746a.591.591,0,1,1,0,1.182H541.279A.6.6,0,0,1,540.677,62.5Zm0,3.316a.6.6,0,0,1,.6-.591h10.746a.591.591,0,1,1,0,1.182H541.279A.6.6,0,0,1,540.677,65.812Z" fill="#fff"/>
    </g>
  </g>
</svg>
