<svg xmlns="http://www.w3.org/2000/svg" width="19.001" height="14" viewBox="0 0 19.001 14">
  <g id="Vector_Smart_Object" data-name="Vector Smart Object" transform="translate(-1588 -49)">
    <g id="Vector_Smart_Object-2" data-name="Vector Smart Object" transform="translate(1192.898 -15.562)">
      <path id="icon" d="M413.19,64.562H396.013a.936.936,0,0,0-.912.952v1.1l9.5,5.452,9.5-5.427V65.514A.933.933,0,0,0,413.19,64.562Zm-8.585,8.82a.59.59,0,0,1-.329-.1L395.1,68.053V77.61a.935.935,0,0,0,.912.952H413.19a.933.933,0,0,0,.912-.952V68.076l-9.175,5.206A.566.566,0,0,1,404.6,73.382Z"/>
    </g>
    <path id="Color_Overlay" data-name="Color Overlay" d="M1588.912,63a.935.935,0,0,1-.913-.951V52.491l9.175,5.229a.592.592,0,0,0,.328.1.569.569,0,0,0,.322-.1L1607,52.514v9.534a.932.932,0,0,1-.913.951ZM1588,51.054v-1.1a.936.936,0,0,1,.913-.952h17.176a.933.933,0,0,1,.913.952V51.08l-9.5,5.427Z" fill="#da251c"/>
  </g>
</svg>
