<svg xmlns="http://www.w3.org/2000/svg" width="58" height="58" viewBox="0 0 58 58">
  <g id="Vector_Smart_Object" data-name="Vector Smart Object" transform="translate(-995 -6646)">
    <g id="Vector_Smart_Object-2" data-name="Vector Smart Object" transform="translate(484.864 6525.232)">
      <path id="Path_1" data-name="Path 1" d="M549.9,140.833H528.368a1.184,1.184,0,0,0-1.143,1.214v1.407l11.908,6.96,11.915-6.928v-1.439A1.181,1.181,0,0,0,549.9,140.833ZM539.14,152.091a.724.724,0,0,1-.412-.129l-11.5-6.674v12.2a1.184,1.184,0,0,0,1.143,1.215H549.9a1.182,1.182,0,0,0,1.143-1.215v-12.17l-11.5,6.645A.705.705,0,0,1,539.14,152.091Zm0,26.677a29,29,0,1,1,29-29A29.031,29.031,0,0,1,539.136,178.768Zm0-54.637a25.637,25.637,0,1,0,25.638,25.639A25.667,25.667,0,0,0,539.136,124.131Z"/>
    </g>
    <path id="Color_Overlay" data-name="Color Overlay" d="M995,6675a29,29,0,1,1,29,29A29.033,29.033,0,0,1,995,6675Zm3.363,0a25.637,25.637,0,1,0,25.636-25.64A25.665,25.665,0,0,0,998.363,6675Zm14.868,8.934a1.184,1.184,0,0,1-1.142-1.215v-12.2l11.5,6.672a.716.716,0,0,0,.412.13.7.7,0,0,0,.4-.128l11.5-6.644v12.169a1.18,1.18,0,0,1-1.142,1.215Zm-1.142-15.248v-1.408a1.184,1.184,0,0,1,1.142-1.213h21.537a1.18,1.18,0,0,1,1.142,1.213v1.44L1024,6675.647Z" fill="#c1c1c1"/>
  </g>
</svg>
