<svg xmlns="http://www.w3.org/2000/svg" width="23.001" height="21" viewBox="0 0 23.001 21">
  <g id="Vector_Smart_Object" data-name="Vector Smart Object" transform="translate(-1619 -762)">
    <g id="Vector_Smart_Object-2" data-name="Vector Smart Object" transform="translate(1280.909 622.793)">
      <path id="Path_120" data-name="Path 120" d="M342.136,154.557l-1.162.5a.618.618,0,0,0-.321.816.63.63,0,0,0,.823.318l1.162-.5a.618.618,0,0,0,.321-.816A.626.626,0,0,0,342.136,154.557Zm3.1-1.346-1.162.5a.616.616,0,0,0-.321.815.628.628,0,0,0,.822.319l1.162-.506a.616.616,0,0,0,.321-.815A.625.625,0,0,0,345.235,153.21Zm11.381,2.024,1.164.258a.637.637,0,0,0,.137.015.619.619,0,0,0,.136-1.224l-1.164-.258a.62.62,0,1,0-.273,1.209Zm-3.1-.688,1.164.258a.619.619,0,1,0,.272-1.209l-1.164-.258a.619.619,0,1,0-.272,1.209Zm-4.894-2.478a.625.625,0,0,0-1.249,0v.215l-.2.086a.617.617,0,0,0-.321.815.626.626,0,0,0,.823.318l.385-.167.409.091a.638.638,0,0,0,.137.015.619.619,0,0,0,.136-1.224l-.122-.026Zm12.472,3.488V142.6c0-.008,0-.017,0-.025l0-.034,0-.023-.005-.034,0-.021-.009-.036-.006-.018-.014-.04,0-.01,0-.006c-.006-.014-.013-.028-.02-.043l-.006-.011c-.009-.016-.019-.032-.03-.048l-.012-.017-.021-.028-.018-.02-.019-.021-.019-.018-.024-.02-.019-.016-.028-.02-.017-.012-.039-.022-.01-.005a.407.407,0,0,0-.052-.024l-.01,0-.042-.015-.025-.006-.024-.006-12.472-2.767a.636.636,0,0,0-.388.038l-9.278,4.032-.008,0a.574.574,0,0,0-.065.034l-.011.006a.587.587,0,0,0-.064.048l-.013.011c-.017.015-.034.031-.05.049l-.008.008a.647.647,0,0,0-.049.065l-.007.011a.582.582,0,0,0-.034.061l-.007.013a.593.593,0,0,0-.028.075l-.005.015c0,.013-.007.026-.01.04l0,.024,0,.021a.555.555,0,0,0-.006.082v12.963a.622.622,0,0,0,.489.6l12.471,2.766h0a.489.489,0,0,0,.053.009l.013,0c.022,0,.044,0,.066,0a.655.655,0,0,0,.19-.029l0,0a.531.531,0,0,0,.056-.02h0l9.278-4.032A.618.618,0,0,0,361.091,155.555Zm-10.528-2.922a.619.619,0,0,0-.155,1.224l.155.033v4.924l-11.222-2.489v-11.7l8.029,1.668v.569a.625.625,0,0,0,1.249,0v-.31l1.945.4Zm.563-6.831-2.66-.553a.625.625,0,0,0-.74-.153l-6.973-1.448,7.3-3.175,10.359,2.3Zm8.715,9.348-8.029,3.489v-4.519a.618.618,0,0,0,.033-1.215l-.033-.007V146.86l8.029-3.337ZM347.995,141.83a.622.622,0,0,0-.625.62v1.2a.625.625,0,0,0,1.249,0v-1.2A.621.621,0,0,0,347.995,141.83Zm0,8.852a.621.621,0,0,0,.624-.618v-1.2a.625.625,0,0,0-1.249,0v1.2A.621.621,0,0,0,347.995,150.683Z"/>
    </g>
    <path id="Color_Overlay" data-name="Color Overlay" d="M1632.029,783l-.013,0c-.017,0-.035-.005-.053-.01h0l-12.471-2.766a.622.622,0,0,1-.489-.6V766.652a.65.65,0,0,1,.005-.083l0-.021,0-.024.011-.04,0-.015a.672.672,0,0,1,.028-.075l.007-.013a.511.511,0,0,1,.034-.061l.007-.011a.611.611,0,0,1,.049-.065l.008-.008c.016-.017.033-.033.05-.049l.013-.012a.566.566,0,0,1,.064-.048l.012-.005c.022-.013.043-.024.065-.035l.009,0,9.277-4.033a.638.638,0,0,1,.388-.037l12.472,2.767.023.006.025.006.041.015.011,0a.464.464,0,0,1,.052.024l.01.005.039.022.018.012.027.021.02.016.023.02.02.018.019.022.019.021.021.028.013.017c.01.015.021.031.03.048l.006.012c.007.013.014.028.021.042l0,.006,0,.01.014.04.006.018.009.037,0,.021.005.035,0,.023,0,.034c0,.008,0,.017,0,.025v12.959a.618.618,0,0,1-.374.566l-9.278,4.033h0a.412.412,0,0,1-.057.02l0,0a.671.671,0,0,1-.191.029C1632.073,783,1632.052,783,1632.029,783Zm-11.78-3.878,11.223,2.488v-4.923l-.156-.033a.619.619,0,0,1,.156-1.224v-5.683l-1.945-.4v.31a.625.625,0,0,1-1.249,0v-.569l-8.029-1.668Zm12.472-9.465v6.039l.032.007a.618.618,0,0,1-.032,1.215v4.519l8.029-3.489V766.317Zm-3.346-1.61,2.659.553,7.291-3.03-10.359-2.3-7.3,3.174,6.973,1.448a.628.628,0,0,1,.74.153Zm-7.814,10.628a.617.617,0,0,1,.32-.816l1.163-.5a.627.627,0,0,1,.823.319.619.619,0,0,1-.321.816l-1.162.5a.636.636,0,0,1-.251.051A.625.625,0,0,1,1621.562,778.671Zm17.127-.386-1.164-.257a.62.62,0,1,1,.273-1.209l1.165.257a.619.619,0,0,1-.136,1.224A.659.659,0,0,1,1638.689,778.285Zm-14.028-.961a.617.617,0,0,1,.321-.815l1.162-.5a.626.626,0,0,1,.823.319.614.614,0,0,1-.321.815l-1.162.507a.631.631,0,0,1-.25.051A.624.624,0,0,1,1624.66,777.324Zm10.925.273-1.164-.257a.619.619,0,1,1,.272-1.209l1.164.257a.619.619,0,0,1-.136,1.224A.637.637,0,0,1,1635.585,777.6Zm-7.826-1.619a.617.617,0,0,1,.321-.815l.2-.086v-.215a.625.625,0,0,1,1.249,0v.124l.122.026a.619.619,0,0,1-.137,1.224.651.651,0,0,1-.137-.015l-.409-.091-.384.167a.62.62,0,0,1-.25.053A.628.628,0,0,1,1627.759,775.977Zm.519-3.12v-1.2a.625.625,0,0,1,1.249,0v1.2a.625.625,0,0,1-1.249,0Zm0-6.412v-1.2a.625.625,0,0,1,1.249,0v1.2a.625.625,0,0,1-1.249,0Z" fill="#d6d6d6"/>
  </g>
</svg>
