<svg xmlns="http://www.w3.org/2000/svg" width="25" height="35" viewBox="0 0 25 35">
  <g id="Vector_Smart_Object" data-name="Vector Smart Object" transform="translate(-376 -1073)">
    <g id="Vector_Smart_Object-2" data-name="Vector Smart Object" transform="translate(317.684 1020.336)">
      <path id="Path_77" data-name="Path 77" d="M83.184,77.195a12.554,12.554,0,0,1-19.967,7.92,1.074,1.074,0,0,1-.051-1.67h0a1.1,1.1,0,0,1,1.373-.062,10.357,10.357,0,0,0,7.526,2.043,10.252,10.252,0,0,0,9.005-9.106,9.958,9.958,0,0,0-3.145-8.252c-.077-.073-.16-.141-.253-.218l-.138-.115a1.072,1.072,0,0,1,.2-1.775,3.4,3.4,0,0,0,1.954-2.985,3.7,3.7,0,0,0-3.427-3.445,9.1,9.1,0,0,1-10.89,0,3.7,3.7,0,0,0-3.426,3.445A3.4,3.4,0,0,0,63.9,65.959a1.081,1.081,0,0,1,.576.836,1.069,1.069,0,0,1-.378.94l-.155.129c-.068.055-.134.109-.2.168a9.945,9.945,0,0,0-2.038,12.046,1.048,1.048,0,0,1-.263,1.281h0a1.118,1.118,0,0,1-1.712-.3,12.1,12.1,0,0,1,1.914-14.018,5.43,5.43,0,0,1-1.9-4.064,5.675,5.675,0,0,1,3.926-5.245V53.746a1.1,1.1,0,0,1,2.2,0v3.61a1.1,1.1,0,0,1,.584.243,6.832,6.832,0,0,0,8.722,0,1.106,1.106,0,0,1,.585-.244V53.746a1.1,1.1,0,0,1,2.2,0v3.982a5.675,5.675,0,0,1,3.926,5.245,5.431,5.431,0,0,1-1.906,4.064A12.118,12.118,0,0,1,83.184,77.195Z"/>
    </g>
    <path id="Color_Overlay" data-name="Color Overlay" d="M380.9,1105.451a1.074,1.074,0,0,1-.05-1.67,1.1,1.1,0,0,1,1.373-.062,10.327,10.327,0,0,0,16.531-7.063,9.96,9.96,0,0,0-3.146-8.252c-.077-.072-.16-.141-.253-.218l-.138-.115a1.072,1.072,0,0,1,.2-1.776,3.4,3.4,0,0,0,1.954-2.985,3.7,3.7,0,0,0-3.426-3.445,9.1,9.1,0,0,1-10.891,0,3.7,3.7,0,0,0-3.425,3.445,3.4,3.4,0,0,0,1.953,2.985,1.081,1.081,0,0,1,.577.836,1.069,1.069,0,0,1-.378.94l-.155.129c-.067.055-.134.11-.2.167a9.946,9.946,0,0,0-2.038,12.047,1.048,1.048,0,0,1-.263,1.281,1.119,1.119,0,0,1-1.713-.3,12.1,12.1,0,0,1,1.914-14.017,5.432,5.432,0,0,1-1.905-4.064,5.676,5.676,0,0,1,3.927-5.245v-3.982a1.1,1.1,0,0,1,2.2,0v3.61a1.108,1.108,0,0,1,.584.243,6.831,6.831,0,0,0,8.722,0,1.109,1.109,0,0,1,.585-.244v-3.609a1.1,1.1,0,0,1,2.2,0v3.982a5.676,5.676,0,0,1,3.927,5.245,5.433,5.433,0,0,1-1.906,4.064,12.116,12.116,0,0,1,3.2,10.157,12.469,12.469,0,0,1-11.23,10.419q-.573.05-1.135.05A12.558,12.558,0,0,1,380.9,1105.451Z" fill="#dfdfdf"/>
  </g>
</svg>
