<svg xmlns="http://www.w3.org/2000/svg" width="27.999" height="28" viewBox="0 0 27.999 28">
  <g id="Vector_Smart_Object" data-name="Vector Smart Object" transform="translate(-456.967 -55.664)">
    <g id="Group_151" data-name="Group 151">
      <ellipse id="Ellipse_1" data-name="Ellipse 1" cx="13.39" cy="13.39" rx="13.39" ry="13.39" transform="translate(457.577 56.093)" fill="#bf2119"/>
      <path id="Path_117" data-name="Path 117" d="M477.428,74.575a3.164,3.164,0,0,1-3.192,1.78,10.193,10.193,0,0,1-4.61-1.906,15.183,15.183,0,0,1-4.766-5.69,4.772,4.772,0,0,1,.195-4.948,1.889,1.889,0,0,1,1.51-.846c.918-.046,1.047.48,1.362,1.3.235.612.549,1.236.725,1.87.328,1.185-.819,1.234-.963,2.2-.091.61.649,1.429.983,1.864A9.045,9.045,0,0,0,471,72.347c.508.32,1.329.9,1.912.578.9-.49.812-2,2.067-1.492a20.483,20.483,0,0,1,1.9.98c.959.516.914,1.05.549,2.16C477.154,75.4,477.7,73.745,477.428,74.575Zm-6.461,9.089a14,14,0,1,1,14-14A14.016,14.016,0,0,1,470.967,83.664Zm0-26.377a12.377,12.377,0,1,0,12.377,12.377A12.391,12.391,0,0,0,470.967,57.287Z" fill="#fff"/>
    </g>
  </g>
</svg>
