<svg xmlns="http://www.w3.org/2000/svg" width="30.001" height="33" viewBox="0 0 30.001 33">
  <g id="Vector_Smart_Object" data-name="Vector Smart Object" transform="translate(-741 -1074)">
    <g id="Vector_Smart_Object-2" data-name="Vector Smart Object" transform="translate(629.915 1020.775)">
      <path id="Path_51" data-name="Path 51" d="M139.061,58.465c-.074-.007-7.363-.777-11.443-4.631a2.234,2.234,0,0,0-3.065,0c-3.256,3.075-8.551,4.185-10.592,4.513l-.117.019-.051.007c-.418.064-.67.091-.683.092a2.253,2.253,0,0,0-.363.07c-.016,0-.034.005-.05.009a2.239,2.239,0,0,0-1.6,2.1c0,.02-.006.04-.006.06h0v.007c0,.772.017,1.532.054,2.28.014.291.043.573.065.86.032.454.063.909.11,1.353.033.314.081.617.121.924.054.408.107.819.174,1.217.051.3.113.593.172.889s.1.587.168.87a.666.666,0,0,0,.028.061,26.676,26.676,0,0,0,3.137,7.96,22.445,22.445,0,0,0,10.046,8.9,2.088,2.088,0,0,0,.251.084c.052.017.1.04.155.052a2.167,2.167,0,0,0,1.445-.136,22.442,22.442,0,0,0,10.045-8.9c2.692-4.436,4.048-9.961,4.029-16.421A2.24,2.24,0,0,0,139.061,58.465Zm-3.813,17.546a20.352,20.352,0,0,1-9.113,8.069l-.106,0,0,0c-.372-.206-8.594-4.842-8.594-11.3a4.756,4.756,0,0,1,1.9-3.794c.07-.053.131-.117.2-.165a4.7,4.7,0,0,1,.6-.33c.069-.034.131-.078.2-.108a4.656,4.656,0,0,1,.669-.209c.074-.018.143-.05.218-.065a4.7,4.7,0,0,1,4.139,1.159l.719.669.719-.669a4.712,4.712,0,0,1,6.512.1,1.052,1.052,0,0,0,1.5-.016,1.07,1.07,0,0,0-.015-1.507,6.825,6.825,0,0,0-8.714-.731,6.79,6.79,0,0,0-3.918-1.237h0a6.764,6.764,0,0,0-.689.036c-.046,0-.092.014-.138.02-.182.021-.362.047-.54.083-.036.007-.072.018-.108.026-.187.041-.371.086-.553.143l-.053.019c-.2.063-.393.134-.583.215h0a6.794,6.794,0,0,0-1.691,1.034l0,0c-.148.124-.295.251-.434.388-.006.006-.008.015-.015.022a6.9,6.9,0,0,0-2.045,4.909l0,.022a27.021,27.021,0,0,1-1.463-5.026c-.053-.271-.111-.539-.157-.817-.063-.374-.111-.759-.161-1.142-.038-.29-.083-.575-.114-.87-.043-.41-.071-.833-.1-1.254-.02-.275-.048-.544-.062-.825q-.053-1.056-.051-2.152a.121.121,0,0,1,.113-.121c.352-.035,8.07-.837,12.686-5.2a.121.121,0,0,1,.082-.033h0a.123.123,0,0,1,.083.033c4.624,4.369,12.36,5.168,12.689,5.2a.121.121,0,0,1,.109.121C138.983,66.768,137.733,71.917,135.248,76.011Z"/>
    </g>
    <path id="Color_Overlay" data-name="Color Overlay" d="M755.482,1106.933a1.58,1.58,0,0,1-.156-.051,1.94,1.94,0,0,1-.251-.085,22.434,22.434,0,0,1-10.046-8.9,26.7,26.7,0,0,1-3.137-7.96.527.527,0,0,1-.028-.06c-.064-.283-.112-.581-.167-.87s-.121-.589-.172-.889c-.067-.4-.119-.808-.174-1.217-.04-.308-.087-.61-.121-.924-.048-.444-.078-.9-.111-1.353-.021-.287-.05-.569-.064-.86-.038-.749-.058-1.508-.055-2.28v-.007c0-.021.005-.04.006-.06a2.239,2.239,0,0,1,1.6-2.1c.016,0,.035-.005.05-.009a2.209,2.209,0,0,1,.364-.07c.013,0,.266-.029.683-.093l.051-.007c.034-.006.081-.014.117-.019,2.042-.328,7.337-1.437,10.593-4.513a2.234,2.234,0,0,1,3.065,0c4.08,3.854,11.37,4.624,11.443,4.631a2.24,2.24,0,0,1,2.024,2.237c.019,6.459-1.337,11.984-4.029,16.421a22.441,22.441,0,0,1-10.045,8.9,2.215,2.215,0,0,1-.926.2A2.178,2.178,0,0,1,755.482,1106.933Zm-4.341-18.057c-.075.015-.144.047-.218.065a4.543,4.543,0,0,0-.669.21c-.07.029-.132.074-.2.107a4.8,4.8,0,0,0-.6.33c-.072.048-.133.112-.2.165a4.756,4.756,0,0,0-1.9,3.794c0,6.461,8.222,11.1,8.595,11.3l0,0,.106,0a20.353,20.353,0,0,0,9.113-8.069c2.486-4.094,3.736-9.244,3.719-15.3a.122.122,0,0,0-.109-.121c-.328-.031-8.066-.83-12.689-5.2a.124.124,0,0,0-.083-.033.121.121,0,0,0-.082.033c-4.617,4.361-12.334,5.164-12.686,5.2a.122.122,0,0,0-.112.121q0,1.1.051,2.152c.013.28.041.549.061.824.03.422.057.844.1,1.255.031.3.076.58.114.87.05.382.1.768.161,1.141.047.278.1.545.158.817a27.045,27.045,0,0,0,1.463,5.026l0-.022a6.9,6.9,0,0,1,2.045-4.909c.007-.007.009-.016.015-.023.14-.137.285-.264.434-.388l0,0a6.756,6.756,0,0,1,1.691-1.034h0a6.131,6.131,0,0,1,.583-.215l.053-.02c.182-.057.366-.1.553-.143.036-.008.071-.02.108-.026.177-.037.358-.062.54-.084.046-.006.092-.016.138-.021.229-.023.458-.035.689-.035h0a6.8,6.8,0,0,1,3.919,1.237,6.826,6.826,0,0,1,8.714.732,1.07,1.07,0,0,1,.014,1.508,1.053,1.053,0,0,1-1.5.016,4.711,4.711,0,0,0-6.511-.1l-.719.669-.72-.669a4.7,4.7,0,0,0-4.139-1.159Z" fill="#fff"/>
  </g>
</svg>
